<svg width="800" height="800" viewBox="0 0 800 800" fill="none" xmlns="http://www.w3.org/2000/svg">
<path d="M600 300C575.872 300.289 552.663 309.293 534.652 325.35C516.641 341.407 505.044 363.435 501.998 387.372C498.953 411.308 504.665 435.539 518.081 455.594C531.498 475.65 551.713 490.178 575 496.5V550C575 589.782 559.196 627.936 531.066 656.066C502.936 684.196 464.782 700 425 700C385.218 700 347.064 684.196 318.934 656.066C290.804 627.936 275 589.782 275 550V475H300L325 450V410.25C361.907 395.32 393.519 369.715 415.788 336.713C438.057 303.71 449.969 264.813 450 225V100L425 75H350V125H400V225C400 264.782 384.196 302.936 356.066 331.066C327.936 359.196 289.782 375 250 375C242.806 375.033 235.62 374.532 228.5 373.5C192.807 368.331 160.171 350.474 136.571 323.201C112.971 295.928 99.9883 261.066 100 225V125H150V75H75L50 100V225C50.2299 264.767 62.2218 303.577 84.4653 336.542C106.709 369.507 138.21 395.153 175 410.25V450L200 475H225V550C225 603.043 246.071 653.914 283.579 691.421C321.086 728.929 371.957 750 425 750C478.043 750 528.914 728.929 566.421 691.421C603.929 653.914 625 603.043 625 550V496.5C648.287 490.178 668.502 475.65 681.919 455.594C695.335 435.539 701.047 411.308 698.002 387.372C694.956 363.435 683.359 341.407 665.348 325.35C647.337 309.293 624.128 300.289 600 300ZM600 450C590.111 450 580.444 447.068 572.221 441.573C563.999 436.079 557.59 428.27 553.806 419.134C550.022 409.998 549.031 399.945 550.961 390.245C552.89 380.546 557.652 371.637 564.645 364.645C571.637 357.652 580.546 352.89 590.245 350.961C599.944 349.031 609.998 350.022 619.134 353.806C628.27 357.59 636.079 363.999 641.573 372.221C647.068 380.444 650 390.111 650 400C650 413.261 644.732 425.979 635.355 435.355C625.978 444.732 613.261 450 600 450Z" fill="#D4DFC9"/>
<path d="M600 450C627.614 450 650 427.614 650 400C650 372.386 627.614 350 600 350C572.386 350 550 372.386 550 400C550 427.614 572.386 450 600 450Z" fill="#ACE1AF"/>
</svg>
