<svg width="2813" height="846" viewBox="0 0 2813 846" fill="none" xmlns="http://www.w3.org/2000/svg">
<path d="M657 317.25C630.58 317.556 605.166 327.077 585.444 344.058C565.722 361.038 553.023 384.333 549.688 409.646C546.353 434.959 552.608 460.582 567.299 481.791C581.99 503 604.126 518.364 629.625 525.049V581.625C629.625 623.695 612.32 664.042 581.517 693.79C550.714 723.538 508.937 740.25 465.375 740.25C421.813 740.25 380.036 723.538 349.233 693.79C318.43 664.042 301.125 623.695 301.125 581.625V502.312H328.5L355.875 475.875V433.839C396.289 418.051 430.903 390.974 455.288 356.074C479.672 321.174 492.716 280.039 492.75 237.938V105.75L465.375 79.3125H383.25V132.188H438V237.938C438 280.007 420.695 320.354 389.892 350.102C359.089 379.85 317.312 396.562 273.75 396.562C265.873 396.598 258.004 396.067 250.208 394.976C211.123 389.51 175.387 370.626 149.545 341.785C123.704 312.944 109.487 276.077 109.5 237.938V132.188H164.25V79.3125H82.125L54.75 105.75V237.938C55.0017 279.991 68.1328 321.032 92.4895 355.893C116.846 390.753 151.339 417.874 191.625 433.839V475.875L219 502.312H246.375V581.625C246.375 637.718 269.448 691.514 310.519 731.178C351.589 770.842 407.293 793.125 465.375 793.125C523.457 793.125 579.161 770.842 620.231 731.178C661.302 691.514 684.375 637.718 684.375 581.625V525.049C709.874 518.364 732.01 503 746.701 481.791C761.392 460.582 767.647 434.959 764.312 409.646C760.977 384.333 748.278 361.038 728.556 344.058C708.834 327.077 683.42 317.556 657 317.25ZM657 475.875C646.171 475.875 635.586 472.774 626.583 466.964C617.579 461.154 610.561 452.896 606.418 443.234C602.274 433.573 601.189 422.941 603.302 412.685C605.415 402.428 610.629 393.006 618.286 385.612C625.943 378.217 635.698 373.181 646.319 371.141C656.939 369.101 667.948 370.148 677.952 374.15C687.956 378.152 696.507 384.929 702.523 393.624C708.539 402.319 711.75 412.542 711.75 423C711.75 437.023 705.982 450.472 695.714 460.388C685.446 470.304 671.521 475.875 657 475.875Z" fill="#D4DFC9"/>
<path d="M657 475.875C687.238 475.875 711.75 452.202 711.75 423C711.75 393.798 687.238 370.125 657 370.125C626.762 370.125 602.25 393.798 602.25 423C602.25 452.202 626.762 475.875 657 475.875Z" fill="#ACE1AF"/>
<path d="M979.4 580L883.48 252.2H912.96L999.2 553.16L989.52 552.72L1078.4 252.2H1107.88L1196.32 552.72L1186.64 553.16L1272.88 252.2H1302.8L1206.44 580H1177.4L1088.08 277.28H1098.2L1008.88 580H979.4ZM1466.61 585.28C1444.61 585.28 1424.81 580 1407.21 569.44C1389.61 558.587 1375.67 543.92 1365.41 525.44C1355.14 506.667 1350.01 485.693 1350.01 462.52C1350.01 439.347 1354.99 418.667 1364.97 400.48C1374.94 382 1388.43 367.48 1405.45 356.92C1422.46 346.36 1441.53 341.08 1462.65 341.08C1478.78 341.08 1493.3 344.013 1506.21 349.88C1519.41 355.747 1530.7 363.96 1540.09 374.52C1549.77 384.787 1557.1 396.667 1562.09 410.16C1567.37 423.36 1570.01 437.293 1570.01 451.96C1570.01 454.893 1569.86 457.973 1569.57 461.2C1569.27 464.427 1568.83 467.8 1568.25 471.32H1365.41V447.12H1553.29L1541.41 456.36C1543.17 439.347 1540.67 424.093 1533.93 410.6C1527.18 396.813 1517.5 385.96 1504.89 378.04C1492.57 369.827 1478.49 365.72 1462.65 365.72C1446.81 365.72 1432.29 369.973 1419.09 378.48C1405.89 386.693 1395.47 398.133 1387.85 412.8C1380.22 427.173 1376.7 443.893 1377.29 462.96C1376.7 482.027 1380.37 498.893 1388.29 513.56C1396.21 528.227 1407.06 539.813 1420.85 548.32C1434.63 556.533 1449.89 560.64 1466.61 560.64C1483.62 560.64 1498.43 556.68 1511.05 548.76C1523.66 540.547 1533.93 529.693 1541.85 516.2L1564.29 528.08C1559.01 538.933 1551.53 548.76 1541.85 557.56C1532.17 566.067 1520.87 572.813 1507.97 577.8C1495.35 582.787 1481.57 585.28 1466.61 585.28ZM1919.43 585.28C1896.84 585.28 1876.01 581.173 1856.95 572.96C1837.88 564.453 1821.16 552.573 1806.79 537.32C1792.71 522.067 1781.71 504.173 1773.79 483.64C1766.16 463.107 1762.35 440.52 1762.35 415.88C1762.35 391.533 1766.16 369.093 1773.79 348.56C1781.71 327.733 1792.71 309.84 1806.79 294.88C1821.16 279.627 1837.88 267.893 1856.95 259.68C1876.01 251.173 1896.84 246.92 1919.43 246.92C1941.43 246.92 1961.23 250.88 1978.83 258.8C1996.43 266.72 2011.24 276.84 2023.27 289.16C2035.29 301.48 2043.95 314.24 2049.23 327.44L2022.39 339.32C2013.59 319.667 2000.24 303.827 1982.35 291.8C1964.75 279.773 1943.77 273.76 1919.43 273.76C1894.49 273.76 1872.2 279.773 1852.55 291.8C1833.19 303.827 1818.08 320.547 1807.23 341.96C1796.37 363.08 1790.95 387.72 1790.95 415.88C1790.95 444.04 1796.37 468.827 1807.23 490.24C1818.08 511.653 1833.19 528.373 1852.55 540.4C1872.2 552.133 1894.49 558 1919.43 558C1943.77 558 1964.75 552.133 1982.35 540.4C2000.24 528.373 2013.59 512.533 2022.39 492.88L2049.23 504.76C2043.95 517.667 2035.29 530.28 2023.27 542.6C2011.24 554.92 1996.43 565.187 1978.83 573.4C1961.23 581.32 1941.43 585.28 1919.43 585.28ZM2206.04 585.28C2191.37 585.28 2178.32 582.493 2166.88 576.92C2155.44 571.347 2146.34 563.573 2139.6 553.6C2132.85 543.627 2129.48 532.187 2129.48 519.28C2129.48 507.84 2131.97 497.133 2136.96 487.16C2141.94 477.187 2150.01 468.68 2161.16 461.64C2172.3 454.307 2186.82 449.173 2204.72 446.24L2299.32 430.4V455.04L2211.76 469.56C2191.81 472.787 2177.73 478.8 2169.52 487.6C2161.3 496.4 2157.2 506.667 2157.2 518.4C2157.2 531.013 2161.89 541.28 2171.28 549.2C2180.96 557.12 2193.13 561.08 2207.8 561.08C2224.81 561.08 2239.62 557.267 2252.24 549.64C2264.85 541.72 2274.68 531.453 2281.72 518.84C2288.76 505.933 2292.28 491.853 2292.28 476.6V418.52C2292.28 402.973 2286.7 390.36 2275.56 380.68C2264.41 371 2249.89 366.16 2232 366.16C2217.33 366.16 2204.13 369.827 2192.4 377.16C2180.66 384.493 2171.72 394.027 2165.56 405.76L2141.8 393C2146.2 383.613 2152.94 374.96 2162.04 367.04C2171.13 359.12 2181.69 352.813 2193.72 348.12C2205.74 343.427 2218.5 341.08 2232 341.08C2249.01 341.08 2263.97 344.453 2276.88 351.2C2290.08 357.653 2300.34 366.747 2307.68 378.48C2315.01 389.92 2318.68 403.267 2318.68 418.52V580H2292.28V531.16L2295.36 533.36C2291.54 542.747 2285.24 551.4 2276.44 559.32C2267.64 566.947 2257.22 573.253 2245.2 578.24C2233.46 582.933 2220.41 585.28 2206.04 585.28ZM2422.18 580V346.36H2448.58V389.92L2443.74 385.96C2448.73 372.76 2457.24 362.347 2469.26 354.72C2481.58 347.093 2496.1 343.28 2512.82 343.28H2527.78V369.68H2509.74C2490.68 369.68 2475.72 375.84 2464.86 388.16C2454.01 400.187 2448.58 416.467 2448.58 437V580H2422.18ZM2709.01 585.28C2687.01 585.28 2667.21 580 2649.61 569.44C2632.01 558.587 2618.07 543.92 2607.81 525.44C2597.54 506.667 2592.41 485.693 2592.41 462.52C2592.41 439.347 2597.39 418.667 2607.37 400.48C2617.34 382 2630.83 367.48 2647.85 356.92C2664.86 346.36 2683.93 341.08 2705.05 341.08C2721.18 341.08 2735.7 344.013 2748.61 349.88C2761.81 355.747 2773.1 363.96 2782.49 374.52C2792.17 384.787 2799.5 396.667 2804.49 410.16C2809.77 423.36 2812.41 437.293 2812.41 451.96C2812.41 454.893 2812.26 457.973 2811.97 461.2C2811.67 464.427 2811.23 467.8 2810.65 471.32H2607.81V447.12H2795.69L2783.81 456.36C2785.57 439.347 2783.07 424.093 2776.33 410.6C2769.58 396.813 2759.9 385.96 2747.29 378.04C2734.97 369.827 2720.89 365.72 2705.05 365.72C2689.21 365.72 2674.69 369.973 2661.49 378.48C2648.29 386.693 2637.87 398.133 2630.25 412.8C2622.62 427.173 2619.1 443.893 2619.69 462.96C2619.1 482.027 2622.77 498.893 2630.69 513.56C2638.61 528.227 2649.46 539.813 2663.25 548.32C2677.03 556.533 2692.29 560.64 2709.01 560.64C2726.02 560.64 2740.83 556.68 2753.45 548.76C2766.06 540.547 2776.33 529.693 2784.25 516.2L2806.69 528.08C2801.41 538.933 2793.93 548.76 2784.25 557.56C2774.57 566.067 2763.27 572.813 2750.37 577.8C2737.75 582.787 2723.97 585.28 2709.01 585.28Z" fill="white"/>
</svg>
